<?xml version="1.0" encoding="UTF-8" standalone="no"?><!DOCTYPE svg PUBLIC "-//W3C//DTD SVG 1.1//EN" "http://www.w3.org/Graphics/SVG/1.1/DTD/svg11.dtd"><svg width="100%" height="100%" viewBox="0 0 842 1191" version="1.1" xmlns="http://www.w3.org/2000/svg" xmlns:xlink="http://www.w3.org/1999/xlink" xml:space="preserve" xmlns:serif="http://www.serif.com/" style="fill-rule:evenodd;clip-rule:evenodd;stroke-linejoin:round;stroke-miterlimit:1.41421;"><g id="Layer-1" serif:id="Layer 1"><path d="M213.845,534.472l-34.232,0c-9.673,0 -15.64,5.978 -15.64,5.978l-53.389,53.389l53.389,53.388c0,0 5.967,5.979 15.64,5.979l34.232,0l-58.665,-59.367l58.665,-59.367Zm-13.453,5.618l-49.211,49.799c-2.159,2.188 -2.159,5.713 0,7.899l49.211,49.799l-20.779,0c-6.979,0 -11.392,-4.074 -11.691,-4.358l-49.391,-49.39l49.391,-49.389c0.299,-0.287 4.712,-4.36 11.691,-4.36l20.779,0" style="fill:#fff;fill-rule:nonzero;"/><path d="M103.472,601.278l-20.014,21.021c0,0 2.595,12.895 23.448,12.895l30.316,0l-33.75,-33.916Zm0.09,8.055l20.142,20.242l-16.798,0c-6.673,0 -11.907,-1.519 -15.134,-4.392c-0.684,-0.611 -1.211,-1.217 -1.613,-1.771l13.403,-14.078" style="fill:#fff;fill-rule:nonzero;"/><path d="M323.6,557.716c0,-1.91 1.796,-2.696 3.704,-2.696c1.798,0 3.706,0.786 3.706,2.696l0,39.738l32.441,-41.311c0.562,-0.786 1.46,-1.123 2.357,-1.123c1.796,0 4.042,1.909 4.042,3.815c0,0.45 -0.113,1.126 -0.561,1.688l-24.136,29.97l27.618,41.537c0.222,0.45 0.447,1.01 0.447,1.457c0,2.026 -2.133,3.817 -4.266,3.817c-1.01,0 -2.02,-0.559 -2.806,-1.684l-25.934,-38.953l-9.202,11.676l0,25.82c0,1.908 -1.908,2.918 -3.706,2.918c-1.908,0 -3.704,-1.01 -3.704,-2.918l0,-76.447Z" style="fill:#fff;fill-rule:nonzero;"/><path d="M250.271,595.167l30.197,-19.982c0.45,-0.338 0.899,-0.45 1.346,-0.45c1.573,0 3.483,1.573 3.483,3.483c0,1.006 -0.563,1.906 -1.237,2.357l-26.717,17.735l26.717,17.623c0.674,0.451 1.237,1.349 1.237,2.359c0,1.908 -1.91,3.482 -3.483,3.482c-0.447,0 -0.896,-0.113 -1.346,-0.451l-30.197,-19.98c-1.123,-0.676 -1.795,-1.912 -1.795,-3.033c0,-1.122 0.784,-2.471 1.795,-3.143" style="fill:#fff;fill-rule:nonzero;"/><path d="M763.519,598.31c0,1.121 -0.676,2.357 -1.799,3.033l-30.197,19.981c-0.447,0.338 -0.898,0.451 -1.345,0.451c-1.573,0 -3.481,-1.574 -3.481,-3.483c0,-1.009 0.562,-1.908 1.232,-2.359l26.72,-17.623l-26.72,-17.734c-0.67,-0.452 -1.232,-1.352 -1.232,-2.358c0,-1.91 1.908,-3.482 3.481,-3.482c0.447,0 0.898,0.111 1.345,0.449l30.197,19.982c1.01,0.672 1.799,2.022 1.799,3.143" style="fill:#fff;fill-rule:nonzero;"/><path d="M443.224,578.931c0,-11.676 -5.949,-17.062 -15.939,-17.062c-9.991,0 -15.94,5.386 -15.94,17.062l0,34.801c0,11.785 5.949,17.176 15.94,17.176c9.99,0 15.939,-5.391 15.939,-17.176l0,-34.801Zm-39.29,34.801l0,-34.801c0,-17.399 10.215,-23.911 23.351,-23.911c13.134,0 23.35,6.512 23.35,23.911l0,34.801c0,17.513 -10.216,24.023 -23.35,24.023c-13.136,0 -23.351,-6.51 -23.351,-24.023" style="fill:#fff;fill-rule:nonzero;"/><path d="M492.31,637.081c-1.683,0 -3.365,-1.01 -3.365,-2.918l0,-76.447c0,-1.91 1.796,-2.696 3.703,-2.696c1.796,0 3.704,0.786 3.704,2.696l0,72.517l31.995,0c1.683,0 2.468,1.684 2.468,3.366c0,1.8 -0.785,3.482 -2.468,3.482l-36.037,0Z" style="fill:#fff;fill-rule:nonzero;"/><path d="M571.509,561.868l0,68.365l15.828,0c9.991,0 16.053,-5.5 16.053,-17.177l0,-34.126c0,-11.675 -6.062,-17.062 -16.053,-17.062l-15.828,0Zm15.828,-6.848c13.133,0 23.462,6.511 23.462,23.91l0,34.126c0,17.515 -10.329,24.025 -23.462,24.025l-19.872,0c-2.019,0 -3.365,-1.348 -3.365,-2.805l0,-76.56c0,-1.461 1.346,-2.696 3.365,-2.696l19.872,0Z" style="fill:#fff;fill-rule:nonzero;"/><path d="M666.36,605.65c0,-0.338 0,-0.562 -0.111,-0.898l-23.237,-44.567c-0.45,-0.787 -0.562,-1.574 -0.562,-2.018c0,-1.912 2.245,-3.146 4.041,-3.146c1.235,0 2.133,0.674 2.918,2.244l20.657,40.975l20.77,-40.975c0.784,-1.57 1.795,-2.244 2.915,-2.244c1.797,0 4.042,1.234 4.042,3.146c0,0.444 -0.111,1.231 -0.449,2.018l-23.349,44.567c-0.111,0.336 -0.225,0.56 -0.225,0.898l0,28.514c0,1.908 -1.796,2.918 -3.704,2.918c-1.795,0 -3.706,-1.01 -3.706,-2.918l0,-28.514Z" style="fill:#fff;fill-rule:nonzero;"/></g></svg>